<svg width="25" height="25" viewBox="0 0 25 25" fill="none" xmlns="http://www.w3.org/2000/svg">
<path d="M22.4064 16.6469L20.2961 18.3897L20.9383 20.9875C20.9735 21.1308 20.9657 21.2812 20.9159 21.4201C20.8661 21.5589 20.7765 21.68 20.6582 21.7681C20.5399 21.8563 20.3983 21.9076 20.251 21.9157C20.1037 21.9237 19.9573 21.8882 19.8301 21.8135L17.4292 20.4007L15.0283 21.8135C14.9011 21.8882 14.7547 21.9237 14.6074 21.9157C14.4601 21.9076 14.3185 21.8563 14.2002 21.7681C14.0819 21.68 13.9923 21.5589 13.9425 21.4201C13.8926 21.2812 13.8849 21.1308 13.9201 20.9875L14.5623 18.3897L12.452 16.6469C12.3369 16.5517 12.2529 16.4244 12.2106 16.2811C12.1684 16.1379 12.1699 15.9853 12.2149 15.8429C12.2599 15.7005 12.3464 15.5748 12.4633 15.4819C12.5802 15.3889 12.7222 15.333 12.8711 15.3213L15.6686 15.1047L16.7401 12.6204C16.798 12.4856 16.8942 12.3708 17.0166 12.2902C17.1391 12.2095 17.2825 12.1665 17.4292 12.1665C17.5758 12.1665 17.7193 12.2095 17.8417 12.2902C17.9642 12.3708 18.0604 12.4856 18.1183 12.6204L19.1898 15.1047L21.9873 15.3213C22.1362 15.333 22.2782 15.3889 22.3951 15.4819C22.512 15.5748 22.5985 15.7005 22.6435 15.8429C22.6885 15.9853 22.69 16.1379 22.6478 16.2811C22.6055 16.4244 22.5215 16.5517 22.4064 16.6469ZM12.2317 20.4175C12.2317 20.6165 12.1527 20.8072 12.012 20.9479C11.8714 21.0885 11.6806 21.1675 11.4817 21.1675H3.87107C3.48881 21.1671 3.12235 21.015 2.85206 20.7447C2.58176 20.4744 2.42969 20.1079 2.42919 19.7257V6.16755C2.42919 5.76972 2.58723 5.38819 2.86853 5.10689C3.14984 4.82558 3.53137 4.66755 3.92919 4.66755H8.86888C9.06594 4.66692 9.26115 4.70547 9.44318 4.78095C9.6252 4.85643 9.79041 4.96734 9.92919 5.10724L12.4895 7.66755H20.4292C20.827 7.66755 21.2086 7.82558 21.4899 8.10689C21.7712 8.38819 21.9292 8.76972 21.9292 9.16755V12.1675C21.9292 12.3665 21.8502 12.5572 21.7095 12.6979C21.5689 12.8385 21.3781 12.9175 21.1792 12.9175C20.9803 12.9175 20.7895 12.8385 20.6489 12.6979C20.5082 12.5572 20.4292 12.3665 20.4292 12.1675V9.16755H3.92919V19.6675H11.4817C11.6806 19.6675 11.8714 19.7466 12.012 19.8872C12.1527 20.0279 12.2317 20.2186 12.2317 20.4175ZM3.92919 7.66755H10.3689L8.86888 6.16755H3.92919V7.66755Z" fill="black"/>
</svg>
