<svg width="25" height="25" viewBox="0 0 25 25" fill="none" xmlns="http://www.w3.org/2000/svg">
<path d="M22.0782 20.9173L17.3841 16.2242C18.7446 14.5908 19.423 12.4957 19.2782 10.3748C19.1334 8.25398 18.1766 6.27058 16.6067 4.83726C15.0368 3.40393 12.9747 2.63102 10.8494 2.67932C8.72418 2.72762 6.69936 3.59341 5.19619 5.09658C3.69302 6.59975 2.82724 8.62457 2.77894 10.7498C2.73064 12.8751 3.50354 14.9371 4.93687 16.507C6.3702 18.0769 8.3536 19.0338 10.4745 19.1786C12.5953 19.3234 14.6904 18.645 16.3238 17.2845L21.0169 21.9785C21.0866 22.0482 21.1693 22.1035 21.2604 22.1412C21.3514 22.1789 21.449 22.1983 21.5475 22.1983C21.6461 22.1983 21.7437 22.1789 21.8347 22.1412C21.9257 22.1035 22.0085 22.0482 22.0782 21.9785C22.1478 21.9089 22.2031 21.8261 22.2408 21.7351C22.2785 21.644 22.2979 21.5465 22.2979 21.4479C22.2979 21.3494 22.2785 21.2518 22.2408 21.1607C22.2031 21.0697 22.1478 20.987 22.0782 20.9173ZM4.29752 10.9479C4.29752 9.61288 4.6934 8.30784 5.4351 7.19781C6.1768 6.08778 7.23101 5.22261 8.46441 4.71172C9.69781 4.20083 11.055 4.06716 12.3644 4.32761C13.6738 4.58806 14.8765 5.23093 15.8205 6.17494C16.7645 7.11894 17.4074 8.32168 17.6678 9.63105C17.9283 10.9404 17.7946 12.2976 17.2837 13.531C16.7728 14.7644 15.9077 15.8186 14.7976 16.5603C13.6876 17.302 12.3825 17.6979 11.0475 17.6979C9.25792 17.6959 7.54219 16.9841 6.27675 15.7187C5.01131 14.4532 4.29951 12.7375 4.29752 10.9479Z" fill="black"/>
</svg>
